<svg width="680" height="520" viewBox="0 0 680 520" xmlns="http://www.w3.org/2000/svg" role="img">
<title>Illustration of a woman gently pressing her lower abdomen</title>
<desc>A seated woman with dark hair, wearing a soft pink top, gently pressing both hands on her lower abdomen, calm expression, flat illustration style.</desc>
<rect x="0" y="0" width="680" height="520" fill="#FDF3EC"/>
<ellipse cx="340" cy="470" rx="180" ry="24" fill="#F3DCC9"/>
<path d="M230 300 Q220 400 250 470 L430 470 Q460 400 450 300 Z" fill="#F6A9B0"/>
<path d="M250 300 L260 460 L420 460 L430 300 Z" fill="#F28C96"/>
<circle cx="340" cy="230" r="70" fill="#F2C3A0"/>
<path d="M275 200 Q270 130 340 120 Q410 130 405 200 Q410 240 395 250 Q400 190 340 185 Q280 190 285 250 Q270 240 275 200 Z" fill="#2E2A26"/>
<circle cx="315" cy="235" r="4" fill="#2E2A26"/>
<circle cx="365" cy="235" r="4" fill="#2E2A26"/>
<path d="M320 258 Q340 268 360 258" fill="none" stroke="#B5654F" stroke-width="3" stroke-linecap="round"/>
<path d="M235 300 Q220 250 245 220 Q270 300 290 320 Z" fill="#F6A9B0"/>
<path d="M445 300 Q460 250 435 220 Q410 300 390 320 Z" fill="#F6A9B0"/>
<ellipse cx="270" cy="330" rx="22" ry="16" fill="#F2C3A0"/>
<ellipse cx="410" cy="330" rx="22" ry="16" fill="#F2C3A0"/>
<ellipse cx="340" cy="345" rx="55" ry="30" fill="#F9DCC4" opacity="0.9"/>
<circle cx="340" cy="345" r="14" fill="#F5B8AE" opacity="0.85"/>
</svg>
